<svg width="28" height="29" viewBox="0 0 29 30" xmlns="http://www.w3.org/2000/svg">
<circle cx="14.8799" cy="15" r="13" stroke="currentColor"/>
<path d="M20.1526 12.24C20.1526 12.9467 19.986 13.6133 19.6526 14.24C19.3193 14.8667 18.786 15.38 18.0526 15.78C17.3193 16.1667 16.3793 16.36 15.2326 16.36H12.7126V22H10.4326V8.1H15.2326C16.2993 8.1 17.1993 8.28667 17.9326 8.66C18.6793 9.02 19.2326 9.51333 19.5926 10.14C19.966 10.7667 20.1526 11.4667 20.1526 12.24ZM15.2326 14.5C16.0993 14.5 16.746 14.3067 17.1726 13.92C17.5993 13.52 17.8126 12.96 17.8126 12.24C17.8126 10.72 16.9526 9.96 15.2326 9.96H12.7126V14.5H15.2326Z" fill="currentColor"/>
</svg>
