<svg width="28" height="30" viewBox="0 0 28 30" fill="none" xmlns="http://www.w3.org/2000/svg">
<circle cx="14" cy="15" r="13" stroke="#E9690D" stroke-width="2"/>
<path d="M20.1998 12.48C20.1998 13.2933 20.0131 14.04 19.6398 14.72C19.2664 15.3867 18.6931 15.9267 17.9198 16.34C17.1464 16.7533 16.1864 16.96 15.0398 16.96H12.9198V22H9.49977V7.96H15.0398C16.1598 7.96 17.1064 8.15333 17.8798 8.54C18.6531 8.92667 19.2331 9.46 19.6198 10.14C20.0064 10.82 20.1998 11.6 20.1998 12.48ZM14.7798 14.24C15.4331 14.24 15.9198 14.0867 16.2398 13.78C16.5598 13.4733 16.7198 13.04 16.7198 12.48C16.7198 11.92 16.5598 11.4867 16.2398 11.18C15.9198 10.8733 15.4331 10.72 14.7798 10.72H12.9198V14.24H14.7798Z" fill="#E9690D"/>
</svg>
