<svg width="27" height="27" viewBox="0 0 27 27" xmlns="http://www.w3.org/2000/svg">
<path d="M8.42812 0C6.51851 0 5.06899 2.2355 4.57302 5.84337L2.49549 6.4438L0 24.106L15.5015 26.88L16.4481 2.40172L15.3147 2.73075C14.5103 0.987067 13.3427 0 11.9882 0C11.4947 0 10.8289 0.138627 10.1491 0.679685C9.51093 0.130019 8.87751 0 8.42812 0ZM8.38141 2.45215C8.50099 2.49888 9.01067 2.97886 9.43615 4.43357L7.25782 5.06282C7.64679 3.32036 8.23161 2.53946 8.38141 2.45215ZM11.9882 2.45936C12.1216 2.45936 12.4918 2.72364 12.8782 3.43685L11.8505 3.73227C11.7511 3.39287 11.6454 3.08077 11.5333 2.8004C11.7259 2.58644 11.9013 2.45936 11.9882 2.45936ZM18.9608 2.55062L18.0241 26.7983L26.88 25.1003L23.615 4.42636L18.9608 2.55062ZM10.1491 9.84223C11.2619 9.82993 11.8308 10.1617 11.8308 10.1617L11.0023 12.6306C11.0023 12.6306 10.2524 12.2343 9.35993 12.2343C8.02811 12.2343 7.96344 13.0678 7.96344 13.2719C7.96344 14.397 10.9384 14.831 10.9384 17.4773C10.9384 19.5616 9.60493 20.9045 7.80609 20.9045C5.63339 20.9045 4.54843 19.574 4.54843 19.574L5.12866 17.6814C5.12866 17.6814 6.26791 18.6541 7.22586 18.6541C7.85904 18.6541 8.11833 18.1666 8.11833 17.8087C8.11833 16.338 5.68677 16.2757 5.68677 13.8459C5.68677 11.812 7.16074 9.84223 10.1491 9.84223Z" fill="currentColor"/>
</svg>
